<?xml version="1.0" encoding="UTF-8" standalone="no"?>
<svg
   xmlns:dc="http://purl.org/dc/elements/1.1/"
   xmlns:cc="http://creativecommons.org/ns#"
   xmlns:rdf="http://www.w3.org/1999/02/22-rdf-syntax-ns#"
   xmlns:svg="http://www.w3.org/2000/svg"
   xmlns="http://www.w3.org/2000/svg"
   viewBox="0 0 672 672"
   height="672"
   width="672"
   xml:space="preserve"
   id="svg2"
   version="1.1"><metadata
     id="metadata8"><rdf:RDF><cc:Work
         rdf:about=""><dc:format>image/svg+xml</dc:format><dc:type
           rdf:resource="http://purl.org/dc/dcmitype/StillImage" /></cc:Work></rdf:RDF></metadata><defs
     id="defs6"><clipPath
       id="clipPath18"
       clipPathUnits="userSpaceOnUse"><path
         id="path16"
         d="M 0,504 H 504 V 0 H 0 Z" /></clipPath></defs><g
     transform="matrix(1.3333333,0,0,-1.3333333,0,672)"
     id="g10"><g
       id="g12"><g
         clip-path="url(#clipPath18)"
         id="g14"><g
           transform="translate(238.6764,285.6304)"
           id="g20"><path
             id="path22"
             style="fill:#f05046;fill-opacity:1;fill-rule:nonzero;stroke:none"
             d="m 0,0 c -0.161,-1.734 -1.398,-2.787 -2.6,-3.516 -3.417,-2.074 -5.248,-5.137 -6.275,-8.83 -0.214,-0.77 -0.173,-1.859 -1.186,-1.865 -0.915,-0.005 -1.135,1.064 -1.441,1.788 -0.87,2.059 -1.271,4.212 -1.064,6.385 -0.373,4.086 1.529,7.044 4.628,9.225 1.895,1.333 4.104,1.461 6.259,0.292 C -0.267,2.713 0.143,1.545 0,0 m 23.405,-3.074 c 1.283,3.118 2.663,6.197 6.252,7.409 2.552,0.861 4.664,-0.664 4.594,-3.371 -0.079,-3.06 -6.834,-7.464 -9.584,-6.205 -0.864,0.395 -1.697,1.109 -1.262,2.167 m -3.297,-47.77 c 5.397,5.243 10.437,10.804 15.208,16.623 6.57,8.012 11.838,16.471 11.541,27.435 -0.246,9.066 -5.762,14.878 -14.909,15.15 -0.907,0.027 -1.88,-0.196 -2.609,0.608 0,0 0,0 0,0 -3.975,-1.114 -6.782,-3.733 -9.235,-6.922 -1.11,-1.443 -1.563,-3.4 -3.323,-4.339 -0.073,-0.764 0.791,-1.592 -0.042,-2.28 -0.781,-0.644 -0.316,-2.333 -1.77,-2.27 -1.109,0.048 -1.278,1.222 -1.685,2.012 -1.378,2.675 -2.606,5.434 -4.64,7.714 C 4.625,7.395 -0.163,9.515 -6.252,7.818 -7.007,7.608 -7.864,7.764 -8.674,7.75 c 0,0 0,0 10e-4,0 -10e-4,0 -10e-4,0 -10e-4,0 -4.655,-1.679 -7.32,-5.257 -8.561,-9.774 -2.001,-7.286 -0.89,-14.283 2.93,-20.805 7.251,-12.381 17.949,-21.46 28.934,-30.294 2.406,-1.936 4.012,-1.722 5.574,0.748 -1.836,0.386 -0.519,1.119 -0.095,1.531" /></g><g
           transform="translate(113.7011,250.9443)"
           id="g24"><path
             id="path26"
             style="fill:#363738;fill-opacity:1;fill-rule:nonzero;stroke:none"
             d="m 0,0 c -0.139,-1.519 -1.105,-1.217 -1.961,-1.225 -2.901,-0.029 -5.802,-0.011 -8.703,-0.011 -2.785,0 -5.571,0.029 -8.355,-0.014 -1.224,-0.018 -1.936,0.172 -1.81,1.707 0.575,6.989 7.403,11.859 13.901,9.835 C -3.084,9.094 0.353,3.862 0,0 m -5.228,15.977 c -7.723,1.999 -15.539,-0.834 -19.58,-7.698 -4.779,-8.12 -5.267,-16.837 -1.151,-25.296 5.57,-11.451 22.819,-13.39 30.972,-3.734 0.542,0.642 1.861,1.182 0.857,2.547 -1.574,2.14 -3.703,2.451 -5.69,0.694 -4.012,-3.549 -8.621,-4.553 -13.576,-2.597 -4.601,1.816 -6.863,5.574 -7.628,10.403 -0.304,1.914 -0.041,2.675 2.125,2.582 3.945,-0.169 7.901,-0.048 11.853,-0.048 2.673,0 5.346,0 8.019,0 6.456,0 6.456,0 6.033,6.501 -0.568,8.716 -5.025,14.78 -12.234,16.646" /></g><g
           transform="translate(193.236,249.6651)"
           id="g28"><path
             id="path30"
             style="fill:#363738;fill-opacity:1;fill-rule:nonzero;stroke:none"
             d="m 0,0 c -2.662,0.184 -5.346,0.043 -8.02,0.043 -2.791,0 -5.582,-0.015 -8.372,0.009 -0.999,0.008 -1.981,-0.277 -1.86,1.554 0.347,5.262 5.124,10.288 10.321,10.516 5.25,0.23 9.47,-3.745 10.152,-9.435 C 2.438,0.874 2.246,-0.155 0,0 m -2.679,17.275 c -7.31,1.914 -14.298,-0.537 -18.839,-6.509 -4.479,-5.891 -4.779,-12.687 -4.164,-19.596 0.716,-8.047 6.289,-14.236 14.129,-16.125 8.367,-2.015 15.955,0.765 20.365,7.391 -2.211,2.899 -4.08,3.744 -7.282,0.58 -3.423,-3.382 -8.172,-3.645 -12.71,-1.731 -4.63,1.952 -6.603,5.89 -7.508,10.564 -0.372,1.918 0.413,2.328 2.208,2.298 6.044,-0.1 12.091,-0.038 18.137,-0.038 8.741,0 8.741,0 7.508,8.842 -1.039,7.444 -5.313,12.614 -11.844,14.324" /></g><g
           transform="translate(439.3377,249.6905)"
           id="g32"><path
             id="path34"
             style="fill:#363738;fill-opacity:1;fill-rule:nonzero;stroke:none"
             d="m 0,0 c -2.9,0.06 -5.802,0.019 -8.703,0.018 -2.785,0 -5.57,-0.029 -8.355,0.018 -0.807,0.014 -1.866,-0.411 -1.926,1.192 -0.228,6.119 6.796,11.995 12.84,10.654 4.461,-0.99 7.96,-5.54 7.968,-10.139 C 1.827,0.307 1.286,-0.027 0,0 m -4.499,17.665 c -7.617,1.459 -15.114,-2.193 -19.047,-9.21 -3.236,-5.773 -3.472,-12.009 -2.493,-18.273 1.15,-7.35 5.309,-12.724 12.53,-14.81 7.3,-2.109 14.235,-1.166 19.98,4.561 1.815,1.808 1.966,2.85 -0.256,4.537 -1.832,1.39 -2.573,0.78 -3.9,-0.506 -3.847,-3.727 -8.539,-4.722 -13.518,-2.952 -4.524,1.609 -6.857,5.306 -7.861,9.894 -0.47,2.153 -0.265,3.453 2.589,3.244 3.701,-0.271 7.437,-0.066 11.158,-0.066 2.325,0 4.651,0 6.977,0 8.035,0 8.035,0 7.094,8.099 -0.959,8.252 -5.95,14.083 -13.253,15.482" /></g><g
           transform="translate(357.9901,235.9746)"
           id="g36"><path
             id="path38"
             style="fill:#363738;fill-opacity:1;fill-rule:nonzero;stroke:none"
             d="m 0,0 c -1.817,-3.889 -5.161,-5.938 -9.434,-6.035 -4.404,-0.099 -7.781,1.89 -9.963,5.778 -1.754,3.127 -2.348,6.507 -2.15,10.125 -0.21,3.111 0.341,6.202 1.638,9.076 1.921,4.254 5.261,6.796 10.017,6.828 4.572,0.031 8.034,-2.194 9.998,-6.314 C 3.184,13 2.998,6.417 0,0 m -7.758,31.496 c -9.561,0.543 -16.392,-3.841 -19.545,-12.336 -1.716,-4.624 -1.722,-9.364 -1.173,-14.098 1.367,-11.793 11.841,-19.043 23.298,-16.301 9.234,2.21 14.447,9.814 14.42,21.667 0.114,1.942 -0.181,4.464 -0.809,6.959 -1.984,7.885 -8.619,13.679 -16.191,14.109" /></g><g
           transform="translate(398.5598,260.833)"
           id="g40"><path
             id="path42"
             style="fill:#363738;fill-opacity:1;fill-rule:nonzero;stroke:none"
             d="m 0,0 c -0.035,-0.111 -0.05,-0.227 -0.086,-0.338 -2.7,-8.315 -5.401,-16.63 -8.391,-25.834 -3.132,9.366 -5.949,17.802 -8.774,26.235 -2.039,6.085 -2.044,6.085 -8.402,5.817 -0.161,-0.007 -0.314,-0.208 -0.614,-0.419 4.796,-13.207 9.65,-26.417 14.349,-39.683 0.741,-2.091 2.148,-1.598 3.577,-1.747 1.679,-0.175 2.708,0.209 3.328,2.021 2.767,8.084 5.678,16.119 8.55,24.167 C 5.378,-4.62 7.241,0.533 9.128,5.783 1.961,6.205 1.961,6.205 0,0" /></g><g
           transform="translate(78.1875,229.1013)"
           id="g44"><path
             id="path46"
             style="fill:#363739;fill-opacity:1;fill-rule:nonzero;stroke:none"
             d="M 0,0 C 0.229,2.086 -1.419,1.256 -2.406,1.252 -6.81,1.234 -7.78,2.105 -7.808,6.489 -7.851,13.12 -7.82,19.75 -7.82,26.381 c 0,5.501 0.001,5.683 5.469,5.665 2.7,-0.009 2.197,1.518 2.343,3.11 0.175,1.909 -0.373,2.579 -2.428,2.576 -5.383,-0.005 -5.383,0.108 -5.384,5.419 0,0.466 -0.066,0.942 0.011,1.394 0.479,2.787 -0.686,3.589 -3.434,3.49 -2.489,-0.089 -4.466,-0.066 -3.855,-3.404 0.103,-0.562 0.015,-1.16 0.015,-1.742 -10e-4,-5.097 -0.003,-5.242 -4.961,-5.149 -2.25,0.042 -2.723,-0.704 -2.646,-2.763 0.069,-1.854 0.099,-3.269 2.558,-2.877 0.907,0.145 1.87,-0.074 2.785,0.043 1.891,0.242 2.352,-0.589 2.299,-2.362 -0.117,-3.952 -0.036,-7.909 -0.032,-11.864 0.003,-3.839 -0.006,-7.678 0.012,-11.516 0.004,-0.695 0.119,-1.39 0.187,-2.084 0.712,-7.309 5.8,-10.776 12.986,-9.058 C 1.227,-3.994 -0.186,-1.696 0,0" /></g><g
           transform="translate(137.4809,254.8817)"
           id="g48"><path
             id="path50"
             style="fill:#363738;fill-opacity:1;fill-rule:nonzero;stroke:none"
             d="m 0,0 c 0,8.956 -0.155,17.916 0.084,26.866 0.083,3.138 -1.677,2.636 -3.464,2.588 -1.787,-0.048 -3.83,0.847 -3.797,-2.614 0.169,-18.027 0.177,-36.057 -0.01,-54.084 -0.034,-3.315 1.739,-2.749 3.656,-2.761 1.945,-0.011 3.72,-0.499 3.623,2.791 C -0.175,-18.15 0,-9.072 0,0" /></g><g
           transform="translate(157.1687,281.6976)"
           id="g52"><path
             id="path54"
             style="fill:#363738;fill-opacity:1;fill-rule:nonzero;stroke:none"
             d="M 0,0 C 0.026,3.004 -1.507,2.763 -3.405,2.647 -5.171,2.54 -7.294,3.536 -7.201,0.043 c 0.243,-9.06 0.082,-18.131 0.081,-27.198 0,-8.951 0.175,-17.906 -0.092,-26.849 -0.097,-3.241 1.609,-2.843 3.589,-2.821 1.926,0.023 3.67,-0.525 3.636,2.774 C -0.176,-36.035 -0.156,-18.016 0,0" /></g><g
           transform="translate(319.0407,254.5699)"
           id="g56"><path
             id="path58"
             style="fill:#363738;fill-opacity:1;fill-rule:nonzero;stroke:none"
             d="m 0,0 c 0,9.067 -0.161,18.138 0.08,27.198 0.095,3.545 -2.106,2.42 -3.83,2.576 -1.952,0.175 -3.394,0.274 -3.369,-2.674 0.153,-18.016 0.177,-36.035 -0.014,-54.05 -0.035,-3.343 1.762,-2.701 3.659,-2.747 2.015,-0.049 3.661,-0.356 3.566,2.848 C -0.173,-17.906 0,-8.951 0,0" /></g><g
           transform="translate(268.0158,294.6025)"
           id="g60"><path
             id="path62"
             style="fill:#cf4443;fill-opacity:1;fill-rule:nonzero;stroke:none"
             d="M 0,0 C 0,0 0,0 0,0 2.274,-0.352 4.556,0.413 6.857,-0.217 13.652,-2.076 17.929,-7.556 18.367,-14.668 19.043,-25.649 14.229,-34.48 7.617,-42.57 2.551,-48.768 -2.47,-55.039 -8.726,-60.143 c -0.397,-0.324 -0.567,-0.703 -0.41,-1.204 10.676,7.895 20.299,16.817 27.499,28.117 2.274,3.569 3.822,7.406 4.475,11.588 C 25.242,-6.246 13.988,4.414 0,0" /></g><g
           transform="translate(259.2898,234.4593)"
           id="g64"><path
             id="path66"
             style="fill:#cf4443;fill-opacity:1;fill-rule:nonzero;stroke:none"
             d="m 0,0 c 6.256,5.105 11.277,11.375 16.343,17.573 6.612,8.09 11.426,16.922 10.75,27.903 -0.438,7.112 -4.715,12.591 -11.51,14.45 -2.301,0.63 -4.583,-0.135 -6.857,0.217 0.729,-0.804 1.702,-0.581 2.608,-0.608 9.147,-0.271 14.664,-6.084 14.91,-15.15 C 26.541,33.421 21.273,24.962 14.703,16.95 9.932,11.132 4.891,5.57 -0.506,0.328 -0.93,-0.084 -2.246,-0.817 -0.41,-1.204 -0.567,-0.702 -0.397,-0.324 0,0" /></g><g
           transform="translate(259.8244,215.4378)"
           id="g68"><path
             id="path70"
             style="fill:#f05046;fill-opacity:1;fill-rule:nonzero;stroke:none"
             d="m 0,0 c -0.674,4.495 -5.201,7.123 -9.693,5.657 -0.579,-0.188 -1.027,-1.086 -1.754,-0.266 0,0 0,0 0,0 -2.123,-3.273 -1.49,-6.48 0.712,-9.282 2.108,-2.682 4.974,-4.001 8.511,-2.797 C -0.867,-4.663 0.387,-2.581 0,0" /></g><g
           transform="translate(257.4718,225.4028)"
           id="g72"><path
             id="path74"
             style="fill:#cf4543;fill-opacity:1;fill-rule:nonzero;stroke:none"
             d="m 0,0 c -3.548,0.812 -7.207,-1.028 -9.094,-4.574 0,0 0,0 0,0 3.443,2.732 8.622,1.335 10.771,-1.72 2.475,-3.518 1.972,-7.268 -1.548,-10.359 4.842,1.597 6.975,4.27 6.835,8.566 C 6.839,-4.261 3.949,-0.904 0,0" /></g><g
           transform="translate(259.149,219.1088)"
           id="g76"><path
             id="path78"
             style="fill:#cf4543;fill-opacity:1;fill-rule:nonzero;stroke:none"
             d="m 0,0 c -2.149,3.055 -7.328,4.452 -10.771,1.72 0.726,-0.82 1.175,0.078 1.753,0.266 4.493,1.466 9.019,-1.162 9.693,-5.657 0.387,-2.581 -0.867,-4.663 -2.223,-6.688 C 1.972,-7.268 2.475,-3.518 0,0" /></g><g
           transform="translate(242.1391,293.5701)"
           id="g80"><path
             id="path82"
             style="fill:#cf4543;fill-opacity:1;fill-rule:nonzero;stroke:none"
             d="m 0,0 c 3.711,-1.767 6.258,-4.655 8.338,-8.065 0.421,-0.691 0.728,-1.449 1.156,-2.132 0.591,-0.942 0.669,-2.579 1.949,-2.629 1.431,-0.055 0.984,1.889 1.875,2.598 C 8.513,0.881 -2.482,5.217 -12.136,-0.19 -8.11,1.002 -4.114,1.959 0,0" /></g><g
           transform="translate(232.424,293.4488)"
           id="g84"><path
             id="path86"
             style="fill:#cf4543;fill-opacity:1;fill-rule:nonzero;stroke:none"
             d="m 0,0 c 6.09,1.697 10.877,-0.424 14.896,-4.931 2.034,-2.281 3.263,-5.04 4.641,-7.714 0.407,-0.791 0.576,-1.964 1.684,-2.012 1.455,-0.064 0.989,1.625 1.771,2.27 0.833,0.687 -0.031,1.516 0.041,2.28 -0.891,-0.709 -0.444,-2.653 -1.875,-2.597 -1.28,0.049 -1.358,1.686 -1.949,2.628 -0.428,0.683 -0.735,1.441 -1.156,2.132 -2.079,3.41 -4.627,6.298 -8.338,8.065 -4.114,1.959 -8.11,1.003 -12.136,-0.19 0,0 0,0 0,0 C -1.611,-0.055 -0.755,-0.21 0,0" /></g><g
           transform="translate(236.9975,289.1097)"
           id="g88"><path
             id="path90"
             style="fill:#f58c84;fill-opacity:1;fill-rule:nonzero;stroke:none"
             d="m 0,0 c -2.155,1.169 -4.364,1.041 -6.259,-0.292 -3.099,-2.181 -5.001,-5.139 -4.629,-9.225 -0.206,-2.173 0.195,-4.326 1.065,-6.385 0.306,-0.725 0.526,-1.794 1.441,-1.788 1.013,0.006 0.972,1.095 1.186,1.865 1.027,3.692 2.858,6.756 6.275,8.83 1.201,0.729 2.439,1.781 2.6,3.516 C 1.822,-1.934 1.412,-0.766 0,0" /></g><g
           transform="translate(263.3431,280.389)"
           id="g92"><path
             id="path94"
             style="fill:#f58c84;fill-opacity:1;fill-rule:nonzero;stroke:none"
             d="M 0,0 C 2.75,-1.258 9.506,3.145 9.585,6.206 9.654,8.912 7.543,10.437 4.991,9.576 1.401,8.364 0.021,5.286 -1.262,2.167 -1.697,1.11 -0.864,0.395 0,0" /></g></g></g></g></svg>